<svg width="32" height="32" viewBox="0 0 32 32" fill="none" xmlns="http://www.w3.org/2000/svg">
<rect width="32" height="32" fill="black"/>
<ellipse cx="16" cy="16" rx="16" ry="14" fill="black"/>
<path d="M16.3965 4.44678C16.4358 4.44793 16.4755 4.45289 16.5146 4.45459C21.947 4.62452 26.5688 7.47215 28.5869 11.4819C28.6221 11.4959 28.6584 11.5088 28.6934 11.5229L28.6543 11.6167C29.3106 12.9684 29.6728 14.4486 29.6729 16.0005C29.6726 22.2366 23.8287 27.3183 16.5176 27.5483C16.3917 27.5537 16.2647 27.5571 16.1377 27.5571H16L15.6475 27.5532C8.25968 27.3949 2.32743 22.2833 2.32715 16.0005L2.33203 15.7017C2.37583 14.2414 2.73967 12.8481 3.36719 11.5708L3.34863 11.5083C3.36845 11.5022 3.38837 11.4958 3.4082 11.4897C5.48714 7.3482 10.3423 4.44309 16 4.44287L16.0947 4.44482C16.1089 4.44475 16.1235 4.44291 16.1377 4.44287L16.3965 4.44678ZM14.9375 22.4546C15.024 22.973 15.118 23.4566 15.2227 23.8989C15.4588 24.8968 15.7229 25.6222 15.9727 26.0688C15.9816 26.0848 15.9915 26.1001 16 26.1147C16.0085 26.1 16.0184 26.0849 16.0273 26.0688C16.2772 25.6222 16.5411 24.8971 16.7773 23.8989C16.8782 23.4728 16.9678 23.0082 17.0518 22.5112C16.3536 22.5183 15.6482 22.4988 14.9375 22.4546ZM11.6436 22.0718C11.8566 22.6182 12.0964 23.1242 12.3584 23.5825C13.0515 24.7945 13.8406 25.5878 14.6338 26.0073C14.2656 25.106 13.9519 23.852 13.7178 22.355C13.0295 22.2843 12.3374 22.1902 11.6436 22.0718ZM20.2656 22.2925C19.6082 22.3773 18.9404 22.4361 18.2646 22.4722C18.033 23.9175 17.7267 25.1296 17.3682 26.0073C18.161 25.5877 18.9488 24.794 19.6416 23.5825C19.8679 23.1867 20.0754 22.7546 20.2656 22.2925ZM23.5557 21.6382C22.9228 21.8104 22.2763 21.9591 21.6172 22.0806C21.1541 23.3859 20.5489 24.519 19.8359 25.4097C21.3458 24.5899 22.642 23.282 23.5557 21.6382ZM8.58594 21.396C9.40679 22.9672 10.5727 24.2491 11.9414 25.1177C11.2775 24.2121 10.7156 23.0893 10.2891 21.811C9.72148 21.689 9.15348 21.5501 8.58594 21.396ZM4.48535 19.9917C5.56016 22.1197 7.46957 23.919 9.91406 25.0581C8.71519 23.962 7.73848 22.5566 7.0752 20.9468C6.20744 20.6665 5.34292 20.3483 4.48535 19.9917ZM27.415 20.1821C26.6769 20.55 25.9062 20.8733 25.1084 21.1548C24.5075 22.5405 23.6758 23.7693 22.666 24.769C24.7617 23.6633 26.4147 22.0566 27.415 20.1821ZM17.208 10.519C16.4103 10.5105 15.6014 10.5244 14.7852 10.562C14.5759 12.1572 14.4531 14.0115 14.4531 16.0005C14.4531 17.9787 14.5741 19.8234 14.7812 21.4126C15.5988 21.4695 16.4084 21.491 17.207 21.478C17.4192 19.8741 17.5459 18.0061 17.5459 16.0005C17.5459 13.9935 17.4204 12.1239 17.208 10.519ZM18.4092 10.5483C18.6152 12.1725 18.7344 14.0288 18.7344 16.0005C18.7344 17.9648 18.6167 19.8144 18.4121 21.4341C19.1752 21.3874 19.9262 21.307 20.6621 21.1958C21.1386 19.6767 21.4199 17.9074 21.4199 16.0005C21.4199 14.0506 21.1252 12.2445 20.6289 10.7026C19.9026 10.6307 19.1616 10.5787 18.4092 10.5483ZM13.5801 10.6333C12.8304 10.6884 12.0755 10.7628 11.3184 10.8569C10.8516 12.3643 10.5791 14.1158 10.5791 16.0005C10.5791 17.8084 10.8321 19.4929 11.2646 20.9575C12.037 21.1037 12.8068 21.2192 13.5713 21.3042C13.3763 19.7159 13.2656 17.9124 13.2656 16.0005C13.2656 14.063 13.38 12.237 13.5801 10.6333ZM21.915 10.854C22.3568 12.4039 22.6084 14.1511 22.6084 16.0005C22.6084 17.7762 22.3762 19.4574 21.9668 20.9604C22.7137 20.8047 23.442 20.6146 24.1484 20.3901C24.6761 19.0691 24.9755 17.5863 24.9756 16.0005C24.9756 14.2496 24.6112 12.6241 23.9766 11.2036C23.3074 11.0672 22.6192 10.9501 21.915 10.854ZM10.0342 11.0356C9.43416 11.1276 8.83345 11.2324 8.2334 11.3491C7.63814 12.7347 7.29885 14.3092 7.29883 16.0005C7.29888 17.4979 7.56508 18.904 8.03906 20.1685C8.67831 20.3604 9.3187 20.5297 9.95801 20.6792C9.5949 19.2489 9.39164 17.6661 9.3916 16.0005C9.39162 14.2229 9.62354 12.5398 10.0342 11.0356ZM25.3809 11.5259C25.8832 12.9024 26.164 14.4135 26.1641 16.0005C26.164 17.3603 25.9565 18.664 25.582 19.8755C26.452 19.5254 27.281 19.1192 28.0625 18.6577C28.3375 17.8037 28.4843 16.9121 28.4844 16.0005C28.4844 14.6776 28.1759 13.3969 27.6123 12.2124C26.9028 11.9546 26.1571 11.7257 25.3809 11.5259ZM6.85156 11.6392C6.01407 11.8293 5.17952 12.0442 4.35156 12.2837C3.80963 13.4479 3.51565 14.7045 3.51562 16.0005C3.51567 16.9009 3.65924 17.7819 3.92773 18.6265C4.82519 19.0331 5.73111 19.3948 6.64062 19.7134C6.29745 18.5483 6.11137 17.2994 6.11133 16.0005C6.11135 14.457 6.37463 12.9847 6.85156 11.6392ZM9.91309 6.94482C7.85905 7.90241 6.18216 9.32537 5.06152 11.0181C5.81348 10.8192 6.57039 10.6408 7.3291 10.481C7.97756 9.11092 8.85955 7.90854 9.91309 6.94482ZM22.6699 7.23389C23.5547 8.11072 24.3018 9.16431 24.8779 10.3442C25.5496 10.4977 26.2025 10.6706 26.833 10.8647C25.8251 9.40118 24.3985 8.14683 22.6699 7.23389ZM11.9414 6.88428C10.6945 7.67575 9.61623 8.81029 8.81348 10.1938C9.33394 10.1018 9.85473 10.0179 10.375 9.94385C10.7903 8.76799 11.3208 7.73108 11.9414 6.88428ZM19.8379 6.59229C20.5225 7.44818 21.107 8.52814 21.5625 9.76904C22.1755 9.84393 22.778 9.93426 23.3682 10.0386C22.4687 8.54762 21.2462 7.35751 19.8379 6.59229ZM14.6348 5.99365C13.8414 6.41311 13.0516 7.20524 12.3584 8.41748C12.1212 8.83226 11.9035 9.28645 11.7061 9.77393C12.3817 9.69758 13.0555 9.63632 13.7256 9.59033C13.959 8.11782 14.2712 6.88393 14.6348 5.99365ZM17.3691 5.99463C17.7261 6.86927 18.0315 8.07547 18.2627 9.51318C18.9289 9.53698 19.5872 9.57576 20.2354 9.63135C20.0536 9.19779 19.8555 8.79154 19.6416 8.41748C18.9493 7.20694 18.1614 6.41445 17.3691 5.99463ZM15.9727 5.93115C15.7229 6.37778 15.4588 7.10307 15.2227 8.10107C15.1194 8.53728 15.026 9.01353 14.9404 9.52393C15.6498 9.49442 16.3541 9.48212 17.0508 9.48682C16.9669 8.99063 16.878 8.52656 16.7773 8.10107C16.5412 7.10304 16.2772 6.37773 16.0273 5.93115C16.0185 5.91548 16.0084 5.90063 16 5.88623C15.9916 5.90071 15.9815 5.91537 15.9727 5.93115Z" fill="white"/>
<line x1="29" y1="15.5752" x2="3" y2="15.5752" stroke="white" stroke-width="1.25"/>
</svg>
