<svg width="997" height="266" viewBox="0 0 997 266" fill="none" xmlns="http://www.w3.org/2000/svg">
<path fill-rule="evenodd" clip-rule="evenodd" d="M101.549 2.88046C65.3538 15.4795 16.0078 67.7255 2.75177 107.483C0.74877 113.489 0.0637845 117.602 0.00378446 123.983C-0.0972155 134.578 1.78576 138.656 10.1948 146.059C15.7228 150.925 16.0568 151.462 15.0578 153.883C14.4678 155.313 13.9418 160.758 13.8898 165.983C13.8028 174.705 14.0578 176.038 17.0038 182.257C22.8848 194.673 36.3208 204.968 48.6538 206.509C53.9358 207.169 53.9898 207.211 56.7348 212.828C60.7948 221.134 67.1698 229.619 74.9328 237.052C90.5068 251.96 107.532 260.343 130.664 264.492C144.61 266.993 166.875 266.163 180.501 262.634C214.317 253.876 238.874 231.172 247.783 200.429C252.341 184.698 250.742 172.514 243.657 169.004C241.289 167.831 240.318 166.328 238.966 161.738C237.426 156.515 237.408 155.665 238.778 153.017C239.631 151.367 240.288 147.543 240.279 144.283C240.248 133.355 234.485 127.24 219.254 121.972L210.795 119.047L210.2 106.265C209.434 89.8015 206.811 80.7824 200.537 73.0344L198.57 70.6045L204.7 62.5445C220.894 41.2475 222.146 22.7915 208.039 13.3195C195.873 5.15145 176.967 6.38147 149.606 17.1235C146.435 18.3685 146.369 18.3305 138.106 10.4075C132.326 4.86546 128.541 2.06445 125.679 1.21145C118.786 -0.844551 110.629 -0.280545 101.549 2.88046ZM126.165 13.2685C128.448 15.0755 131.692 18.2224 133.373 20.2624L136.43 23.9715L132.613 26.1945C119.277 33.9625 97.5488 50.0724 86.6228 60.2934C70.1908 75.6644 53.3478 100.584 44.7598 122.233C43.2868 125.945 41.5678 128.987 40.9388 128.993C38.2298 129.016 29.0488 134.168 24.8968 137.996L20.3878 142.152L16.4188 138.963C14.2368 137.209 11.8528 134.358 11.1228 132.628C4.32877 116.537 24.7998 77.2224 56.1018 46.2444C77.5348 25.0334 102.705 10.2925 117.904 10.0495C121.1 9.99846 122.937 10.7135 126.165 13.2685ZM368.415 31.2184C361.445 32.2364 352.048 37.2855 347.727 42.3335C340.976 50.2215 340.295 53.9014 340.295 82.5214V107.983H349.745H359.196L359.495 83.5545C359.825 56.6855 359.832 56.6555 366.683 51.5455C370.449 48.7365 379.185 48.7644 382.981 51.5984C389.747 56.6494 389.764 56.7285 390.109 83.5545L390.424 107.983H399.919H409.414L409.105 81.2335C408.804 55.2615 408.725 54.3404 406.372 49.5604C399.821 36.2504 384.535 28.8634 368.415 31.2184ZM302.295 69.9835V107.983H311.795H321.295V69.9835V31.9835H311.795H302.295V69.9835ZM419.295 40.9835V49.9835H430.295H441.295V78.9835V107.983H450.795H460.295V78.9835V49.9835H471.295H482.295V40.9835V31.9835H450.795H419.295V40.9835ZM494.472 58.7335L494.795 85.4835L497.521 90.4835C501.056 96.9675 501.89 97.9504 507.438 102.171C517.014 109.455 533.041 110.993 544.537 105.73C550.955 102.791 557.221 96.9234 560.504 90.7744C562.705 86.6514 562.807 85.4185 563.104 59.2335L563.413 31.9835H553.903H544.394L544.095 56.4124C543.812 79.4344 543.674 81.0044 541.69 83.6624C538.555 87.8654 533.72 90.3065 528.681 90.2305C522.716 90.1405 518.255 87.3455 515.545 81.9985C513.407 77.7815 513.295 76.4214 513.295 54.7714V31.9835H503.722H494.15L494.472 58.7335ZM582.295 69.9835V107.983H591.795H601.295V69.9835V31.9835H591.795H582.295V69.9835ZM613.295 40.9835V49.9835H624.295H635.295V78.9835V107.983H644.795H654.295V78.9835V49.9835H665.795H677.295V40.9835V31.9835H645.295H613.295V40.9835ZM151.86 48.9155L149.051 51.8475L152.923 52.4564C158.79 53.3794 168.428 55.9545 171.795 57.4985C174.733 58.8455 174.702 58.8595 170.295 58.1785C167.82 57.7965 158.82 57.5304 150.295 57.5864C136.491 57.6784 133.811 57.9875 125.8 60.4035C116.305 63.2675 102.459 69.3685 97.0318 73.0795C94.8388 74.5785 95.7298 73.2824 99.7948 69.0604C105.892 62.7264 119.131 52.1544 124.331 49.4644L127.192 47.9855L125.685 51.5925C124.856 53.5765 124.427 55.4484 124.731 55.7534C125.036 56.0574 127.425 55.1475 130.04 53.7295C136.084 50.4535 146.146 47.2224 153.732 46.1194C154.247 46.0444 153.405 47.3025 151.86 48.9155ZM194.042 84.4245C195.638 85.7665 197.519 88.7885 198.224 91.1405C199.273 94.6435 201.104 113.667 201.258 122.662C201.315 126.006 203.726 127.731 211.586 130.05C221.866 133.083 228.322 136.802 229.911 140.607C234.322 151.162 218.381 163.976 191.795 171.245C184.88 173.136 181.048 173.447 163.537 173.541C143.575 173.648 143.24 173.685 140.658 176.066C133.692 182.49 133.577 194.377 140.419 200.675C141.729 201.881 145.5 204.131 148.798 205.675C154.565 208.375 155.389 208.483 170.295 208.473C188.157 208.461 195.93 206.782 209.849 199.931C217.504 196.163 229.356 186.711 228.056 185.41C227.72 185.075 224.577 186.405 221.07 188.366C212.451 193.187 201.502 197.614 191.819 200.194C180.183 203.295 161.14 203.249 153.087 200.102C148.164 198.178 141.407 192.538 142.597 191.347C142.809 191.136 146.54 191.7 150.889 192.601C163.428 195.199 184.295 193.493 184.295 189.87C184.295 189.043 182.49 188.889 178.045 189.338C166.65 190.488 142.619 186.55 143.551 183.685C144.471 180.859 148.606 180.101 157.295 181.165C163.399 181.913 169.037 181.881 177.295 181.051C196.11 179.161 209.4 175.028 223.144 166.792C226.636 164.699 229.821 163.19 230.223 163.438C230.625 163.687 231.569 166.459 232.323 169.598C233.456 174.323 234.168 175.486 236.457 176.35C240.852 178.009 241.802 181.7 239.946 189.915C237.431 201.053 233.127 208.39 223.414 218.097C216.433 225.074 213.17 227.494 206.241 230.837C194.276 236.61 184.257 238.983 171.845 238.983C160.033 238.983 152.628 237.336 142.734 232.507C133.734 228.114 125.441 219.626 121.01 210.271C117.914 203.734 117.796 203.021 117.833 190.983C117.878 176.337 119.492 171.011 126.956 160.872C132.242 153.691 132.241 153.683 124.408 144.309C115.174 133.258 112.45 122.899 115.756 111.411C117.144 106.586 118.516 104.455 123.128 99.9575C130.726 92.5485 133.414 91.8444 151.05 92.6464C166.897 93.3674 168.649 92.9824 176.795 86.9874C182.699 82.6434 183.78 82.1665 187.968 82.0625C189.961 82.0125 192.22 82.8915 194.042 84.4245ZM185.242 107.036C183.52 108.758 183.294 109.848 183.841 113.786C184.904 121.44 187.259 125.431 190.923 125.787C193.591 126.047 194.149 125.699 194.72 123.424C195.68 119.602 193.457 109.877 191.02 107.233C188.469 104.465 187.835 104.443 185.242 107.036ZM138.795 124.519C135.35 126.269 132.072 129.813 132.803 130.996C133.077 131.438 135.662 131.172 138.548 130.404C145.348 128.593 150.486 128.618 154.949 130.483C163.737 134.155 164.703 130.25 156.277 125.113C152.06 122.542 143.275 122.244 138.795 124.519ZM517.71 128.404C513.918 130.056 510.295 134.491 510.295 137.483C510.295 140.559 513.971 144.95 517.931 146.604C519.746 147.363 524.185 147.983 527.795 147.983C538.579 147.983 544.495 144.264 544.495 137.483C544.495 130.638 538.546 126.959 527.577 127.022C523.847 127.044 519.407 127.666 517.71 128.404ZM553.295 176.983V226.983H566.795H580.295V176.983V126.983H566.795H553.295V176.983ZM668.295 176.983V226.983H681.795H695.295L695.301 205.233C695.304 193.271 695.753 181.875 696.299 179.909C698.468 172.099 706.42 169.102 710.962 174.382C713.271 177.067 713.295 177.348 713.295 202.039V226.983H727.373H741.451L741.059 197.233C740.615 163.596 740.107 160.795 733.192 153.88C726.157 146.845 713.645 145.213 704.095 150.085C699.834 152.259 694.722 158.775 692.183 165.268C690.47 169.651 688.286 171.368 688.308 168.316C688.315 167.308 689.245 163.558 690.375 159.983C692.818 152.252 694.062 133.898 692.425 129.733L691.345 126.983H679.82H668.295V176.983ZM755.71 128.404C751.918 130.056 748.295 134.491 748.295 137.483C748.295 140.559 751.971 144.95 755.931 146.604C759.848 148.241 771.002 148.424 774.98 146.916C779.997 145.015 782.295 142.052 782.295 137.483C782.295 132.914 779.997 129.951 774.98 128.05C771.074 126.57 759.432 126.784 755.71 128.404ZM189.689 133.399C189.39 134.177 189.292 136.09 189.47 137.649C189.725 139.873 190.368 140.549 192.459 140.791C195.499 141.143 196.898 138.523 195.866 134.411C195.423 132.646 194.57 131.983 192.745 131.983C191.363 131.983 189.988 132.62 189.689 133.399ZM147.298 134.735C145.375 135.696 143.641 137.336 143.447 138.378C143.133 140.058 143.474 140.179 146.444 139.445C148.287 138.989 152.045 138.528 154.795 138.42C160.393 138.2 161.482 136.396 157.295 134.277C153.893 132.556 151.429 132.669 147.298 134.735ZM174.604 139.619C173.094 143.556 179.95 147.757 182.965 144.742C184.483 143.223 184.48 142.915 182.926 140.543C180.947 137.523 175.635 136.933 174.604 139.619ZM58.9798 141.073C68.4388 145.652 73.4008 155.845 73.4318 170.758C73.4488 178.896 73.0998 180.861 70.8108 185.539C67.7708 191.754 64.4078 194.509 58.1928 195.875C46.6398 198.416 31.8278 189.978 26.2408 177.673C22.0598 168.463 24.3508 153.825 31.1038 146.607C37.8228 139.424 50.4118 136.925 58.9798 141.073ZM340.043 148.348C333.348 150.847 329.548 154.613 325.746 162.518C320.807 172.786 318.447 172.509 321.864 162.062C322.727 159.424 323.289 155.515 323.114 153.375L322.795 149.483L312.545 149.198L302.295 148.913V187.948V226.983H316.295H330.295V203.03C330.295 186.589 330.67 178.255 331.49 176.455C333.021 173.094 337.51 170.748 340.821 171.579C345.788 172.825 346.295 175.686 346.295 202.433V226.983H360.295H374.295L374.297 203.733C374.298 183.601 374.533 180.014 376.047 176.984C378.274 172.526 382.551 170.323 385.96 171.876C390.641 174.009 391.295 177.878 391.295 203.451V226.983H404.861H418.427L418.073 196.733C417.67 162.267 417.222 159.942 409.65 152.958C403.514 147.299 396.77 145.827 387.579 148.142C381.671 149.629 376.704 154.56 372.316 163.291C368.018 171.844 366.295 172.028 366.295 163.933C366.295 156.643 364.555 152.925 359.757 149.959C355.228 147.16 345.382 146.356 340.043 148.348ZM450.795 148.412C446.945 149.166 440.87 150.843 437.295 152.139L430.795 154.495L430.513 166.239C430.358 172.698 430.484 177.983 430.792 177.983C431.1 177.983 434.099 176.596 437.457 174.901C446.021 170.578 458.31 167.608 464.063 168.471C469.322 169.26 474.296 173.482 474.294 177.156C474.292 179.465 474.191 179.484 461.544 179.592C445.891 179.725 439.163 181.814 432.604 188.575C423.605 197.851 424.062 214.304 433.552 222.636C438.273 226.78 443.385 228.433 451.295 228.371C463.236 228.278 473.408 221.517 477.849 210.723C478.919 208.12 480.199 206.124 480.692 206.286C481.186 206.449 481.498 210.394 481.386 215.054C481.089 227.392 480.712 226.983 492.402 226.983H502.295L502.283 201.733C502.271 175.225 501.708 170.605 497.482 162.34C494.782 157.06 488.366 151.558 482.428 149.433C476.182 147.198 459.714 146.666 450.795 148.412ZM616.295 148.339C600.515 152.937 591.559 163.364 589.088 180.013C586.275 198.964 594.956 217.942 609.566 224.78C623.196 231.16 640.836 229.847 653.426 221.515L657.295 218.955V205.885C657.295 198.697 656.957 192.987 656.545 193.195C638.038 202.527 628.991 203.924 619.295 198.946C610.571 194.467 610.478 183.074 619.118 177.303C626.103 172.638 638.213 173.288 649.51 178.933C652.867 180.61 655.993 181.983 656.455 181.983C656.917 181.983 657.295 175.96 657.295 168.598C657.295 155.288 657.28 155.203 654.696 153.51C646.578 148.191 626.213 145.448 616.295 148.339ZM829.147 148.313C822.109 150.945 817.691 155.578 813.775 164.432C812.425 167.485 810.865 169.983 810.308 169.983C808.938 169.983 809.046 168.376 810.806 162.574C811.625 159.874 812.295 155.712 812.295 153.324V148.983H801.795H791.295V187.983V226.983H805.246H819.197L819.496 202.004L819.795 177.025L822.484 174.337C825.943 170.881 830.836 170.698 833.451 173.927C835.135 176.007 835.295 178.41 835.295 201.594V226.983H849.231H863.166L863.481 202.554C863.775 179.712 863.929 177.945 865.856 175.367C870.056 169.746 876.974 170.379 879.34 176.6C879.865 177.982 880.295 189.884 880.295 203.048V226.983H893.795H907.295V198.665C907.295 175.677 906.995 169.324 905.7 164.915C903.415 157.137 900.775 153.35 895.458 150.224C891.555 147.93 889.654 147.487 883.795 147.509C872.767 147.551 867.812 151.074 861.676 163.233C857.24 172.025 855.296 172.177 855.291 163.733C855.287 156.375 853.081 151.958 848.134 149.4C843.799 147.158 833.77 146.583 829.147 148.313ZM954.754 149.287C948.691 152.186 944.891 156.477 941.537 164.211C940.16 167.386 938.717 169.983 938.331 169.983C936.664 169.983 936.537 168.548 937.871 164.767C938.654 162.547 939.295 158.088 939.295 154.857V148.983H928.795H918.295V197.983V246.983H932.295H946.295V232.406V217.83L948.921 220.95C953.266 226.115 958.751 228.369 966.893 228.336C975.731 228.301 981.63 225.682 987.25 219.296C1000.23 204.546 1000.19 172.448 987.172 156.65C979.982 147.927 964.806 144.48 954.754 149.287ZM44.8368 148.712C39.3078 150.117 33.8258 158.043 34.4748 163.694C34.9318 167.68 37.4458 167.19 39.5598 162.701C42.5798 156.288 49.4158 155.185 52.9268 160.544C54.3148 162.663 54.3978 163.694 53.4398 166.894C50.7128 175.997 53.4168 182.983 59.6678 182.983C63.0368 182.983 65.2948 181.498 65.2948 179.283C65.2948 178.472 64.0188 177.983 61.9018 177.983C57.4458 177.983 56.8608 176.158 59.3178 169.924C63.0888 160.358 61.1938 153.565 53.7508 149.962C49.6358 147.97 48.4278 147.8 44.8368 148.712ZM514.295 189.416V226.983H527.795H541.295V189.464V151.945L538.545 152.714C534.897 153.734 519.392 153.7 516.545 152.666L514.295 151.848V189.416ZM752.295 189.416V226.983H765.795H779.295V189.416V151.848L777.045 152.666C775.808 153.115 770.745 153.483 765.795 153.483C760.845 153.483 755.782 153.115 754.545 152.666L752.295 151.848V189.416ZM963.566 172.981C968.538 176.893 970.877 190.746 968.195 200.404C965.614 209.699 957.81 212.698 951.811 206.699C944.505 199.393 944.874 179.881 952.438 173.516C956.06 170.469 960.123 170.273 963.566 172.981ZM473.295 196.335C473.295 198.299 469.212 203.99 466.208 206.214C459.901 210.884 450.295 209.013 450.295 203.115C450.295 197.751 455.392 195.14 466.045 195.046C471.502 194.999 473.295 195.317 473.295 196.335Z" fill="black"/>
</svg>
